<svg xmlns="http://www.w3.org/2000/svg" width="40pt" height="30pt" viewBox="0 0 512 511.99">
  <g id="lifebuoy" transform="translate(0 -0.005)">
    <path id="Path_59" data-name="Path 59" d="M255.995,0C114.613,0,0,114.618,0,256S114.613,511.995,255.995,511.995,511.99,397.382,511.99,256,397.377,0,255.995,0Zm0,377.075A121.08,121.08,0,1,1,377.075,256,121.078,121.078,0,0,1,255.995,377.08Z" fill="#e8e8e8"/>
    <path id="Path_60" data-name="Path 60" d="M38.75,256C38.75,121.138,143.039,10.632,275.373.726Q265.781,0,256,0C114.619,0,.006,114.618.006,256S114.619,511.995,256,511.995q9.78,0,19.372-.721C143.039,501.368,38.75,390.862,38.75,256ZM294.745,134.92a119.61,119.61,0,0,0-19.372,1.557,121.083,121.083,0,0,1,0,239.046,119.723,119.723,0,0,0,19.372,1.557,121.08,121.08,0,1,0,0-242.16Z" fill="#c1c0bf"/>
    <path id="Path_61" data-name="Path 61" d="M511.99,256a208.141,208.141,0,0,0-134.9,0,121.087,121.087,0,0,1-101.7,119.523h-.01a119.723,119.723,0,0,1-19.372,1.557H256a208.194,208.194,0,0,0-1.024,131.843c.334,1.024.679,2.038,1.024,3.061v.01h.01c1.139,0,2.288-.01,3.427-.021.919-.01,1.849-.031,2.769-.052,1.243-.031,2.476-.063,3.7-.115,1.055-.042,2.1-.084,3.156-.136.094-.01.2-.01.293-.021,1.034-.052,2.069-.1,3.093-.178.982-.052,1.964-.125,2.936-.2C407.711,501.368,512,390.862,512,256ZM255.995.016V.006C114.613.016.01,114.618.01,256H.02a208.049,208.049,0,0,1,134.9,0,121.076,121.076,0,0,1,121.07-121.08A208.194,208.194,0,0,1,254.97,3.077C255.3,2.053,255.65,1.04,255.995.016Z" fill="#ff605d"/>
    <path id="Path_62" data-name="Path 62" d="M255.995.016V.006C114.613.016.01,114.618.01,256H.02a208.255,208.255,0,0,1,38.89-9.268c4.411-123.672,96.537-225,216.061-243.655C255.3,2.053,255.65,1.04,255.995.016ZM415.485,246.8a207.5,207.5,0,0,0-38.4,9.2,121.087,121.087,0,0,1-101.7,119.523,119.591,119.591,0,0,0,19.362,1.557A121.078,121.078,0,0,0,415.83,256Q415.83,251.36,415.485,246.8Z" fill="#e04848"/>
  </g>
</svg>
