<svg xmlns="http://www.w3.org/2000/svg" width="290" height="60" viewBox="0 0 439 63.567">
  <g id="Logo_Movil_UPeU" data-name="Logo Movil UPeU" transform="translate(-4.39 -8.52)">
    <path id="Path_1" data-name="Path 1" d="M215.637,8.52H201.788V48.447c0,7.643-3.312,10.919-11.119,10.919s-11.192-3.33-11.192-10.919V8.52h-13.94V48.556c0,15.705,8.717,23.44,25.132,23.44s24.968-7.734,24.968-23.44ZM128.631,40.549c.582-7.279,2.985-10.246,9.208-10.246,5.46,0,8.717,2.839,8.881,10.246ZM140.66,71.814a40.855,40.855,0,0,0,16.379-3.239l-1.4-10.409a36.506,36.506,0,0,1-13.43,2.493c-8.626,0-12.739-3.148-13.358-11.556h29.318a50.122,50.122,0,0,0,.328-6.06c0-15.978-7.88-23.458-20.746-23.458-15.086,0-22.147,9.39-22.147,25.478,0,17.634,7.716,26.788,25.059,26.788M96.783,29.812c0,7.825-2.985,9.572-9.864,9.572h-8.3V20.313h8.3c7.279,0,9.864,2.093,9.864,9.572m14.431.091c0-14.559-7.043-21.383-24.295-21.383H64.609V70.886H78.621V50.595h8.3c17.325,0,24.295-7.552,24.295-20.692M54.472,8.52H40.623V48.447c0,7.643-3.312,10.919-11.1,10.919S18.239,56,18.239,48.447V8.52H4.39V48.556C4.39,64.262,13.089,72,29.522,72s24.95-7.734,24.95-23.44Z" transform="translate(0 0)" fill="#982f46"/>
    <line id="Line_1" data-name="Line 1" y2="63.567" transform="translate(227.339 8.52)" fill="none" stroke="#434244" stroke-width="2"/>
    <path id="Path_2" data-name="Path 2" d="M337.1,49.945V31.492h-2.238V45.414h0l-9.39-13.922h-2.275V49.945h2.275V35.6h0l1.092,1.674,8.681,12.739ZM312.129,27.47l-1.947,2.875h1.929L315.3,27.47Zm4.531,13.248c0,5.642-1.365,7.279-4.968,7.279s-4.986-1.565-4.986-7.279,1.383-7.188,4.986-7.188,4.968,1.529,4.968,7.188m2.621,0c0-6.733-2.093-9.518-7.589-9.518s-7.643,2.784-7.643,9.518,2.184,9.572,7.643,9.572,7.589-2.784,7.589-9.572m-22.075,9.227h2.584V31.492h-2.584Zm-5.168,0V31.492H289.8V45.414h0l-9.318-13.958h-2.329v18.49h2.257V35.55h0l1.074,1.674,8.7,12.739Zm-18.38-18.453h-2.493V43.284c0,3.185-1.419,4.622-4.5,4.622s-4.513-1.4-4.513-4.622V31.492h-2.493V43.3c0,4.841,2.53,6.988,7.006,6.988s6.988-2.147,6.988-6.988Zm-32.375,1.82h0l.564,1.911,2.675,8.1H237.88l2.73-8.1Zm5.46,16.6h2.821l-6.788-18.453h-3L233,49.909h2.712l1.456-4.4H245.4Zm-16.67,0V31.492h-2.238V45.414h0l-9.318-13.958h-2.238v18.49h2.257V35.6h0l1.074,1.674,8.681,12.739ZM205.013,33.348h0l.564,1.911,2.675,8.1h-6.533l2.73-8.1Zm5.46,16.6h2.821l-6.806-18.453h-2.948l-6.77,18.453h2.693l1.474-4.4H209ZM194.8,31.492h-2.493V43.284c0,3.185-1.438,4.622-4.495,4.622s-4.513-1.4-4.513-4.622V31.492h-2.511V43.3c0,4.841,2.53,6.988,7.025,6.988S194.8,48.143,194.8,43.3Zm-20.237,5.46c0,2.439-1.056,3.312-3.4,3.312h-3.64v-6.57h3.64c2.311,0,3.312.855,3.312,3.167m2.6-.109c0-3.549-1.82-5.259-5.914-5.259H164.94V49.945h2.493V42.174h3.64l4.131,7.771h3L173.4,41.7c2.329-.382,3.64-2.111,3.64-4.95M152,47.67V41.41h7.607V39.354H152v-5.46h8.881V31.583H149.563V49.945h11.72l.091-2.293Zm-8.517-10.391c0,2.821-1.256,3.64-3.858,3.64h-3.64V33.639h3.64c2.675,0,3.858.91,3.858,3.64m2.566,0c0-4-1.911-5.787-6.424-5.787h-6.1V49.945h2.493V42.993h3.64c4.568,0,6.424-1.965,6.424-5.751" transform="translate(105.874 15.536)" fill="#434244"/>
    <path id="Path_3" data-name="Path 3" d="M334.262,23.76c0,6.861-2.093,8.553-6.515,8.553H323.07V15.406h4.641c4.641,0,6.551,1.82,6.551,8.353m3.221,0c0-7.953-2.857-11.265-9.736-11.265h-7.771V35.188h7.807c6.515,0,9.682-3.167,9.682-11.429m-31.319-8.99h0l.692,2.366,3.276,9.955h-8.171l3.476-9.955ZM312.9,35.188h3.44l-8.371-22.693h-3.64l-8.335,22.693h3.33l1.82-5.46h9.973ZM290.859,23.76c0,6.861-2.093,8.553-6.533,8.553h-4.659V15.406h4.641c4.641,0,6.551,1.82,6.551,8.353m3.221,0c0-7.953-2.857-11.265-9.754-11.265h-7.753V35.188H284.4c6.515,0,9.682-3.167,9.682-11.429M267.055,35.188h3.185V12.495h-3.185Zm-4.677-6.479c0-7.771-11.192-5.46-11.192-10.391,0-1.82,1.219-3.367,4.622-3.367a14.559,14.559,0,0,1,5.46,1.092l.419-2.693a14.14,14.14,0,0,0-5.969-1.219c-5.168,0-7.461,2.784-7.461,6.351,0,7.534,11.192,5.3,11.192,10.446,0,2.42-1.565,3.876-4.768,3.876a11.3,11.3,0,0,1-6.115-1.729l-.491,2.821a13.067,13.067,0,0,0,6.642,1.711c4.986,0,7.716-2.621,7.716-6.9m-21.4-9.536c0,2.985-1.31,4.076-4.2,4.076h-4.459V15.188h4.586c2.839,0,4.076,1.074,4.076,3.913m3.185-.127c0-4.386-2.311-6.479-7.279-6.479h-7.662V35.188h3.076V25.634h4.55l5.1,9.554h3.64l-5.914-10.137c2.857-.473,4.422-2.6,4.422-6.078M213.352,32.386V24.633h9.354V22.085h-9.354V15.352h10.919V12.495h-13.9V35.188H224.78v-2.8ZM203.306,12.495l-5.751,17.4-.692,2.329h0l-.637-2.329-5.714-17.4h-3.439l8.062,22.693h3.531l8.062-22.693ZM179.648,35.188h3.167V12.495h-3.167Zm-6.351,0V12.495h-2.748V29.619h0L159.084,12.458h-2.821v22.73h2.784V17.554h0l1.328,2.056L171.04,35.225ZM150.731,12.495h-3.076V27.053c0,3.931-1.82,5.678-5.46,5.678s-5.551-1.82-5.551-5.678V12.495H133.57V27.053c0,5.969,3.112,8.59,8.626,8.59s8.535-2.657,8.535-8.626Z" transform="translate(105.907 2.959)" fill="#434244"/>
  </g>
</svg>
